# xmcd CD database file
#
# Track frame offsets:
#	150
#	13954
#	28506
#	42463
#	57863
#	75190
#	88717
#	104709
#	115503
#	134515
#	148942
#	167154
#	183181
#
# Disc length: 2688 seconds
#
# Revision: 0
# Processed by: cddbd v1.5.2PL0 Copyright (c) Steve Scherf et al.
# Submitted via: CDex 1.70beta2
#
DISCID=ad0a7e0d
DTITLE=Mo, Keb  - MO Keb
DYEAR=1994
DGENRE=Jazz
TTITLE0=everly morning
TTITLE1=tell everybody i know
TTITLE2=love blues
TTITLE3=victims of comfort
TTITLE4=angelina
TTITLE5=anybody seen my girl
TTITLE6=she just wants to dance
TTITLE7=am i wrong
TTITLE8=come on in my kitchen
TTITLE9=dirty low down and bad
TTITLE10=don't try to explain
TTITLE11=kindhearted woman blues
TTITLE12=city boy
EXTD=YEAR: 1994
EXTT0=
EXTT1=
EXTT2=
EXTT3=
EXTT4=
EXTT5=
EXTT6=
EXTT7=
EXTT8=
EXTT9=
EXTT10=
EXTT11=
EXTT12=
PLAYORDER=
